<?xml version="1.0" encoding="UTF-8" standalone="no"?>
<!DOCTYPE svg PUBLIC "-//W3C//DTD SVG 20010904//EN"
              "http://www.w3.org/TR/2001/REC-SVG-20010904/DTD/svg10.dtd">

<svg xmlns="http://www.w3.org/2000/svg"
     width="11.1111in" height="11.1111in"
     viewBox="0 0 1000 1000">
  <circle cx="500" cy="500" r="500" fill="white" />
  <path id="Selection"
        fill="black"
        d="M 334.00,972.00
           C 322.89,969.47 292.04,955.77 281.00,950.25
             244.16,931.83 211.72,911.52 180.00,885.08
             130.98,844.24 89.69,794.17 59.31,738.00
             33.41,690.12 15.59,637.65 6.59,584.00
             6.59,584.00 0.91,534.00 0.91,534.00
             0.91,534.00 0.00,522.00 0.00,522.00
             0.00,522.00 0.00,476.00 0.00,476.00
             0.00,476.00 0.91,466.00 0.91,466.00
             2.80,438.40 6.49,410.98 12.88,384.00
             23.73,338.24 42.04,291.79 65.43,251.00
             65.43,251.00 81.58,225.00 81.58,225.00
             106.62,185.08 147.29,140.97 184.00,111.60
             216.63,85.50 243.73,68.39 281.00,49.75
             292.04,44.23 322.89,30.53 334.00,28.00
             334.00,28.00 334.00,381.00 334.00,381.00
             334.00,381.00 666.00,381.00 666.00,381.00
             666.00,381.00 666.00,28.00 666.00,28.00
             678.95,30.96 708.39,44.45 721.00,50.75
             763.84,72.17 799.21,95.87 835.00,127.84
             877.19,165.51 913.77,212.23 940.69,262.00
             1025.22,418.29 1019.55,613.11 925.58,764.00
             895.78,811.84 858.01,854.79 814.00,890.00
             783.19,914.65 754.20,932.65 719.00,950.25
             707.75,955.87 677.36,969.41 666.00,972.00
             666.00,972.00 666.00,881.00 666.00,881.00
             666.00,881.00 667.00,866.00 667.00,866.00
             667.00,866.00 667.00,618.00 667.00,618.00
             667.00,618.00 334.00,618.00 334.00,618.00
             334.00,618.00 334.00,972.00 334.00,972.00 Z" />
</svg>
